<svg width="44" height="44" viewBox="0 0 44 44" fill="none" xmlns="http://www.w3.org/2000/svg">
<g clip-path="url(#clip0)">
<path d="M41.5793 2.42035C39.9656 0.806884 38.0229 0 35.7499 0H8.24995C5.97759 0 4.03422 0.806884 2.42035 2.42035C0.806885 4.03412 0 5.97749 0 8.24995V35.7502C0 38.0228 0.806885 39.966 2.42035 41.5794C4.03412 43.1932 5.97759 44.0001 8.24995 44.0001H14.6666C15.0864 44.0001 15.4017 43.9856 15.6117 43.9575C15.8216 43.9286 16.0315 43.8044 16.2417 43.5846C16.452 43.3652 16.5568 43.0452 16.5568 42.6252C16.5568 42.5682 16.5518 41.9183 16.5423 40.677C16.5326 39.4354 16.5279 38.452 16.5279 37.7262L15.869 37.8409C15.4489 37.9171 14.9189 37.9508 14.2791 37.9411C13.6396 37.9315 12.9758 37.8649 12.2884 37.7407C11.6006 37.6163 10.9611 37.33 10.369 36.8816C9.77723 36.4324 9.35713 35.8454 9.10881 35.1198L8.82226 34.4605C8.63132 34.0218 8.33072 33.5346 7.92005 33.0003C7.50939 32.4653 7.0941 32.1024 6.67401 31.9115L6.47344 31.7682C6.33989 31.6728 6.21578 31.5577 6.1011 31.4241C5.98662 31.2902 5.90073 31.1564 5.84344 31.0231C5.78615 30.8892 5.83371 30.7793 5.98662 30.6931C6.13953 30.6073 6.41615 30.5648 6.81738 30.5648L7.39009 30.6506C7.77216 30.7268 8.24453 30.9558 8.80821 31.338C9.37148 31.7198 9.83452 32.2163 10.1974 32.8272C10.6369 33.6104 11.1664 34.2068 11.7873 34.6175C12.4078 35.0285 13.0334 35.2338 13.6635 35.2338C14.2936 35.2338 14.8378 35.1861 15.2963 35.0909C15.7543 34.9952 16.184 34.8517 16.5853 34.6607C16.7572 33.3814 17.2251 32.3973 17.9888 31.7099C16.9003 31.5952 15.9217 31.4235 15.0525 31.1942C14.1838 30.9648 13.2861 30.5927 12.36 30.0769C11.4335 29.5611 10.665 28.9218 10.0539 28.1575C9.44282 27.3931 8.94135 26.3906 8.55015 25.1497C8.15875 23.908 7.963 22.4756 7.963 20.8525C7.963 18.5419 8.71761 16.5745 10.2262 14.9514C9.51947 13.2137 9.5862 11.266 10.4266 9.1078C10.9804 8.93583 11.8018 9.06486 12.8902 9.49459C13.9788 9.92462 14.7759 10.2923 15.2821 10.5975C15.7884 10.9027 16.1941 11.1607 16.4997 11.371C18.2761 10.8745 20.1093 10.6263 21.9998 10.6263C23.8902 10.6263 25.7237 10.8745 27.5002 11.371L28.5887 10.6835C29.3338 10.225 30.2121 9.80492 31.2244 9.42315C32.2366 9.04128 33.0098 8.93613 33.5448 9.1081C34.4039 11.2663 34.4807 13.214 33.7735 14.9516C35.2821 16.5749 36.0369 18.5422 36.0369 20.8528C36.0369 22.4762 35.8412 23.9135 35.4498 25.164C35.0587 26.4149 34.5529 27.4178 33.9317 28.1721C33.3112 28.9265 32.5377 29.561 31.6116 30.0771C30.6853 30.5925 29.7877 30.9653 28.9186 31.194C28.0496 31.4233 27.0711 31.5957 25.9826 31.7104C26.975 32.5695 27.4714 33.925 27.4714 35.7777V42.6243C27.4714 42.9491 27.5188 43.2115 27.6143 43.412C27.7104 43.6125 27.8629 43.7506 28.0729 43.8275C28.2838 43.9038 28.4691 43.9514 28.6319 43.9704C28.7946 43.9895 29.0281 43.9992 29.3337 43.9992H35.7504C38.0227 43.9992 39.9662 43.1923 41.5793 41.5785C43.193 39.9648 43.9999 38.0213 43.9999 35.7489V8.24995C43.9997 5.97749 43.1928 4.03382 41.5793 2.42035Z" fill="#565656"/>
</g>
<defs>
<clipPath id="clip0">
<rect width="44" height="44" rx="10" fill="white"/>
</clipPath>
</defs>
</svg>
