<svg width="44" height="44" viewBox="0 0 44 44" fill="none" xmlns="http://www.w3.org/2000/svg">
<path d="M25.8906 19.1737C25.0183 17.9524 23.5877 17.1499 21.9826 17.1499C20.3775 17.1499 18.9469 17.9524 18.0746 19.1737C17.5163 19.9762 17.1674 20.9532 17.1674 22C17.1674 24.6519 19.3307 26.8152 21.9826 26.8152C24.6345 26.8152 26.7978 24.6519 26.7978 22C26.7978 20.9532 26.4489 19.9762 25.8906 19.1737Z" fill="#565656"/>
<path d="M28.9265 19.2085C29.2754 19.9064 29.4847 21.0229 29.4847 21.9999C29.4847 26.1173 26.135 29.5019 21.9828 29.5019C17.8305 29.5019 14.4808 26.1522 14.4808 21.9999C14.4808 20.988 14.6901 19.9064 15.0391 19.2085H10.817V30.4091C10.817 31.8746 12.1081 33.1657 13.5736 33.1657H30.392C31.8575 33.1657 33.1485 31.8746 33.1485 30.4091V19.2085H28.9265Z" fill="#565656"/>
<path d="M31.8918 11.4621H27.8442V16.1029H32.4501V12.0553V11.4272L31.8918 11.4621Z" fill="#565656"/>
<path d="M32.9389 0.0170898H11.0262C4.9548 0.0170898 0 4.97189 0 11.0433V32.9909C0 39.0274 4.9548 43.9822 11.0262 43.9822H32.9738C39.0452 43.9822 44 39.0274 44 32.956V11.0433C43.9651 4.97189 39.0103 0.0170898 32.9389 0.0170898ZM35.5908 19.1733V30.4088C35.5908 33.3399 33.3228 35.6079 30.3918 35.6079H13.5734C10.6423 35.6079 8.37431 33.3399 8.37431 30.4088V19.1733V13.5904C8.37431 10.6594 10.6423 8.3914 13.5734 8.3914H30.3918C33.3228 8.3914 35.5908 10.6594 35.5908 13.5904V19.1733Z" fill="#565656"/>
</svg>
