<svg width="44" height="44" viewBox="0 0 44 44" fill="none" xmlns="http://www.w3.org/2000/svg">
<path d="M30.5325 14.4725L14.3934 24.4822C14.1092 24.6584 13.9799 25.0045 14.0791 25.3238L16.244 32.2997C16.2895 32.4463 16.503 32.4261 16.5202 32.2736L17.0464 27.596C17.0667 27.4153 17.1534 27.2485 17.2896 27.128L30.9566 15.0424C31.2838 14.7532 30.9038 14.2422 30.5325 14.4725Z" fill="#565656"/>
<path d="M0 0V44H44V0H0ZM36.6769 11.433L31.6534 35.4504C31.4177 36.5774 30.0958 37.0836 29.1676 36.4022L21.5829 30.8348L17.7172 34.7818C17.0387 35.4745 15.8667 35.1941 15.5752 34.2693L12.7849 25.4152L5.30812 23.2074C4.32719 22.9177 4.26936 21.5501 5.22239 21.1787L34.6457 9.71275C35.7657 9.27635 36.923 10.2565 36.6769 11.433Z" fill="#565656"/>
</svg>
