<svg width="44" height="44" viewBox="0 0 44 44" fill="none" xmlns="http://www.w3.org/2000/svg">
<g clip-path="url(#clip0)">
<path d="M41.5828 2.42035C39.9698 0.806884 38.0263 0 35.7539 0H8.25373C5.98137 0 4.03791 0.806884 2.42414 2.42035C0.810669 4.03412 0.00378418 5.97749 0.00378418 8.24994V35.7498C0.00378418 38.0221 0.810669 39.9657 2.42414 41.5794C4.03791 43.1932 5.98137 44.0001 8.25373 44.0001H35.7536C38.026 44.0001 39.9695 43.1932 41.5825 41.5794C43.1963 39.9657 44.0032 38.0222 44.0032 35.7498V8.24994C44.0031 5.97749 43.1962 4.03382 41.5828 2.42035ZM33.6626 16.9298C33.6817 17.1017 33.6915 17.359 33.6915 17.7034C33.6915 19.3076 33.4573 20.9166 32.9896 22.5299C32.522 24.1439 31.8057 25.6908 30.8409 27.1707C29.8771 28.6505 28.7264 29.9591 27.3898 31.0952C26.0529 32.231 24.4489 33.1385 22.577 33.816C20.706 34.4945 18.7004 34.8337 16.5617 34.8337C13.239 34.8337 10.1644 33.9355 7.33789 32.1411C7.79621 32.1981 8.2739 32.2269 8.77015 32.2269C11.5394 32.2269 14.0316 31.3676 16.2469 29.6483C14.9485 29.6298 13.7881 29.229 12.7665 28.4452C11.7446 27.6623 11.0335 26.6694 10.6323 25.4662C11.1287 25.5425 11.501 25.5803 11.7493 25.5803C12.1694 25.5803 12.6565 25.504 13.2101 25.3516C11.8161 25.0838 10.6418 24.3922 9.6869 23.275C8.73182 22.1577 8.25443 20.8831 8.25443 19.4509V19.3936C9.2663 19.8707 10.2212 20.1189 11.1189 20.1383C9.38098 18.9731 8.51209 17.3024 8.51209 15.1253C8.51209 14.0558 8.78881 13.0437 9.34266 12.0888C10.8512 13.9414 12.6849 15.4212 14.8426 16.5288C17.0004 17.6363 19.3114 18.2572 21.7748 18.3908C21.6795 18.028 21.6316 17.5694 21.6316 17.0158C21.6316 15.3541 22.2189 13.9364 23.3935 12.7618C24.5677 11.5872 25.9858 10.9998 27.6471 10.9998C29.4044 10.9998 30.8657 11.6302 32.0304 12.8907C33.3482 12.6425 34.6283 12.1552 35.8692 11.4298C35.3919 12.8999 34.5034 14.0172 33.2053 14.7812C34.4463 14.609 35.6013 14.2845 36.6706 13.8071C35.8686 15.0293 34.8657 16.0701 33.6626 16.9298Z" fill="#565656"/>
</g>
<defs>
<clipPath id="clip0">
<rect width="44" height="44" rx="10" fill="white"/>
</clipPath>
</defs>
</svg>
